<svg width="30" height="30" viewBox="0 0 30 30" fill="none" xmlns="http://www.w3.org/2000/svg">
<g clip-path="url(#clip0_5125_94)">
<path opacity="0.2" d="M15 30C23.2843 30 30 23.2843 30 15C30 6.71573 23.2843 0 15 0C6.71573 0 0 6.71573 0 15C0 23.2843 6.71573 30 15 30Z" fill="#FF2056"/>
<path d="M15 24C19.4281 24 23 20.6589 23 16.5169C23 14.187 21.9189 12.0674 20.1892 10.6031L15 6L9.8108 10.6031C8.0811 12.0674 7 14.187 7 16.5169C7 20.6589 10.5719 24 15 24Z" fill="#FF2056"/>
</g>
<defs>
<clipPath id="clip0_5125_94">
<rect width="30" height="30" fill="white"/>
</clipPath>
</defs>
</svg>
